<svg xmlns="http://www.w3.org/2000/svg" viewBox="0 0 256 256" width="256" height="256">
  <defs>
    <linearGradient id="cloth" x1="0" y1="0" x2="0" y2="1">
      <stop offset="0%" stop-color="#a78bfa"/>
      <stop offset="100%" stop-color="#7c3aed"/>
    </linearGradient>
    <linearGradient id="clothLight" x1="0" y1="0" x2="0" y2="1">
      <stop offset="0%" stop-color="#c4b5fd"/>
      <stop offset="100%" stop-color="#8b5cf6"/>
    </linearGradient>
    <linearGradient id="teal" x1="0" y1="0" x2="1" y2="1">
      <stop offset="0%" stop-color="#5eead4"/>
      <stop offset="100%" stop-color="#0d9488"/>
    </linearGradient>
    <linearGradient id="metal" x1="0" y1="0" x2="0" y2="1">
      <stop offset="0%" stop-color="#f3f4f6"/>
      <stop offset="45%" stop-color="#c4c9d4"/>
      <stop offset="100%" stop-color="#8b93a3"/>
    </linearGradient>
    <linearGradient id="gold" x1="0" y1="0" x2="0" y2="1">
      <stop offset="0%" stop-color="#fde68a"/>
      <stop offset="100%" stop-color="#d97706"/>
    </linearGradient>
    <linearGradient id="leather" x1="0" y1="0" x2="0" y2="1">
      <stop offset="0%" stop-color="#78716c"/>
      <stop offset="100%" stop-color="#44403c"/>
    </linearGradient>
    <filter id="shadow" x="-25%" y="-15%" width="150%" height="150%">
      <feDropShadow dx="0" dy="6" stdDeviation="5" flood-color="#000" flood-opacity="0.35"/>
    </filter>
  </defs>
  <ellipse cx="128" cy="236" rx="70" ry="10" fill="#000" opacity="0.22"/>
  <g filter="url(#shadow)">
    <circle cx="128" cy="128" r="72" fill="url(#cloth)" stroke="url(#gold)" stroke-width="8"/>
    <circle cx="128" cy="128" r="52" fill="none" stroke="#c4b5fd" stroke-width="3" opacity="0.6"/>
    <path d="M128 88 L140 116 L168 116 L146 134 L154 162 L128 146 L102 162 L110 134 L88 116 L116 116 Z"
          fill="url(#gold)"/>
    <path d="M128 98 L136 116 L154 116 L140 128 L146 146 L128 136 L110 146 L116 128 L102 116 L120 116 Z"
          fill="#fef3c7" opacity="0.35"/>
  </g>
</svg>