<svg xmlns="http://www.w3.org/2000/svg" viewBox="0 0 256 256" width="256" height="256">
  <defs>
    <linearGradient id="cloth" x1="0" y1="0" x2="0" y2="1">
      <stop offset="0%" stop-color="#a78bfa"/>
      <stop offset="100%" stop-color="#7c3aed"/>
    </linearGradient>
    <linearGradient id="clothLight" x1="0" y1="0" x2="0" y2="1">
      <stop offset="0%" stop-color="#c4b5fd"/>
      <stop offset="100%" stop-color="#8b5cf6"/>
    </linearGradient>
    <linearGradient id="teal" x1="0" y1="0" x2="1" y2="1">
      <stop offset="0%" stop-color="#5eead4"/>
      <stop offset="100%" stop-color="#0d9488"/>
    </linearGradient>
    <linearGradient id="metal" x1="0" y1="0" x2="0" y2="1">
      <stop offset="0%" stop-color="#f3f4f6"/>
      <stop offset="45%" stop-color="#c4c9d4"/>
      <stop offset="100%" stop-color="#8b93a3"/>
    </linearGradient>
    <linearGradient id="gold" x1="0" y1="0" x2="0" y2="1">
      <stop offset="0%" stop-color="#fde68a"/>
      <stop offset="100%" stop-color="#d97706"/>
    </linearGradient>
    <linearGradient id="leather" x1="0" y1="0" x2="0" y2="1">
      <stop offset="0%" stop-color="#78716c"/>
      <stop offset="100%" stop-color="#44403c"/>
    </linearGradient>
    <filter id="shadow" x="-25%" y="-15%" width="150%" height="150%">
      <feDropShadow dx="0" dy="6" stdDeviation="5" flood-color="#000" flood-opacity="0.35"/>
    </filter>
  </defs>
  <ellipse cx="128" cy="236" rx="70" ry="10" fill="#000" opacity="0.22"/>
  <g filter="url(#shadow)">
    <path d="M64 108 Q128 88 192 108 L192 168 Q128 196 64 168 Z" fill="url(#teal)"/>
    <path d="M64 108 Q128 88 192 108 L192 148 Q128 168 64 148 Z" fill="#14b8a6" opacity="0.45"/>
    <path d="M88 128 Q128 118 168 128" fill="none" stroke="#ccfbf1" stroke-width="4" stroke-linecap="round" opacity="0.7"/>
    <circle cx="96" cy="138" r="10" fill="#0f766e" opacity="0.5"/>
    <circle cx="160" cy="138" r="10" fill="#0f766e" opacity="0.5"/>
    <path d="M64 108 L56 96 M192 108 L200 96" stroke="url(#metal)" stroke-width="6" stroke-linecap="round"/>
  </g>
</svg>